<svg width="211" height="48" viewBox="0 0 211 48" fill="none" xmlns="http://www.w3.org/2000/svg">
<g clip-path="url(#clip0_1_1606)">
<path d="M156.914 47.7052C104.787 47.7052 52.7183 47.7052 0.640625 47.7052C0.640625 31.9055 0.640625 16.1059 0.640625 0.294678C70.6357 0.294678 140.64 0.294678 210.641 0.294678C210.641 16.0982 210.641 31.9017 210.641 47.7052C192.749 47.7052 174.861 47.7052 156.914 47.7052ZM20.2396 41.7321C20.2249 41.718 20.2102 41.7039 20.2326 41.6216C21.252 40.6332 22.2019 39.5569 23.31 38.6809C24.443 37.7852 24.8656 36.7734 24.7235 35.3413C24.5864 33.959 24.6938 32.5524 24.6938 31.004C23.8299 31.004 23.1368 31.0139 22.4441 31.0012C21.7102 30.9878 21.1443 30.6543 20.734 30.0485C20.0682 29.0655 20.1559 28.1122 21.0718 27.0834C21.9512 26.0956 22.8487 25.1217 23.7806 24.1838C24.2465 23.7149 24.4307 23.1803 24.4228 22.5589C24.4054 21.1975 24.374 19.8363 24.3371 18.4753C24.3188 17.8047 24.1254 17.622 23.4504 17.5929C23.1784 17.5811 22.9038 17.6001 22.6341 17.5704C21.8467 17.4834 21.1849 17.1638 20.7136 16.4984C19.8791 15.3203 19.8737 13.9812 20.8435 12.9156C21.6654 12.0124 22.6205 11.2316 23.4853 10.3653C23.7739 10.0762 24.154 9.69761 24.1677 9.34721C24.2187 8.0483 24.1807 6.74068 24.0856 5.44297C24.0129 4.4503 23.4658 3.95894 22.4486 3.88271C21.5191 3.81307 20.5839 3.80682 19.651 3.79992C18.2719 3.78971 18.2601 3.79999 18.2594 5.21725C18.2578 8.72001 18.2653 12.2228 18.2752 15.7255C18.278 16.7548 18.2712 16.764 17.2289 16.7536C14.8404 16.7299 12.4512 16.5864 10.0714 16.9757C7.85024 17.3391 6.10364 18.907 5.63354 21.1239C5.46109 21.9371 5.34224 22.7757 5.32579 23.6052C5.28529 25.6474 5.31263 27.691 5.32461 29.734C5.32957 30.5787 5.42225 30.653 6.27687 30.6508C8.33764 30.6456 10.3984 30.6421 12.4592 30.637C14.1303 30.6328 15.8017 30.6072 17.4724 30.6309C18.2414 30.6418 18.2427 30.685 18.2446 31.4801C18.2535 35.1969 18.2612 38.9137 18.2695 42.6306C18.2712 43.3982 18.3058 43.4678 19.0902 43.4784C20.8217 43.5019 22.5537 43.4827 24.2854 43.4948C24.6692 43.4975 24.7937 43.3387 24.788 42.9685C24.7705 41.8401 24.786 40.7112 24.7705 39.5827C24.763 39.0382 24.7148 38.4943 24.6801 37.8603C24.0871 38.3986 23.5878 38.8603 23.0792 39.3116C22.1497 40.1364 21.2147 40.9549 20.2396 41.7321ZM26.1539 36.6209C25.6939 36.8834 25.6038 37.2727 25.6309 37.7891C25.7075 39.2458 25.7296 40.7057 25.7554 42.1646C25.7826 43.6949 25.567 43.5222 27.1503 43.4909C28.8733 43.457 30.3313 42.8286 31.3446 41.3648C31.9927 40.4284 32.1447 39.3465 32.1586 38.2533C32.1878 35.9574 32.1704 33.661 32.1675 31.3648C32.1665 30.5663 32.1611 30.5912 32.9458 30.5634C35.08 30.4878 37.2342 30.5449 39.3422 30.2629C42.5078 29.8395 44.8486 27.1816 45.0084 23.9967C45.1254 21.6674 45.0866 19.3302 45.114 16.9965C45.1145 16.947 45.0752 16.897 45.0384 16.8089C44.8268 16.8089 44.6153 16.809 44.4038 16.8089C40.5897 16.8082 36.7756 16.8071 32.9615 16.8069C32.1882 16.8069 32.1893 16.8084 32.1877 16.0647C32.181 12.8733 32.1741 9.68185 32.1651 6.49044C32.1646 6.33141 32.1443 6.17243 32.1259 5.9087C29.5465 8.12781 27.0549 10.2714 24.5632 12.4151C24.5981 12.4665 24.633 12.5178 24.6679 12.5692C25.0159 12.5692 25.3639 12.5687 25.7119 12.5694C26.1296 12.5702 26.352 12.7212 26.3235 13.1978C26.2816 13.8963 26.3118 14.5988 26.2866 15.2986C26.274 15.6494 26.4087 15.793 26.7555 15.7971C27.2416 15.8029 27.7281 15.8254 28.2132 15.8588C29.0972 15.9195 29.7497 16.3441 30.1719 17.1277C30.8131 18.318 30.5565 19.6747 29.5312 20.6287C28.0088 22.0452 26.4995 23.476 24.9861 24.9023C24.8952 24.988 24.8175 25.0877 24.6732 25.248C24.9749 25.248 25.1886 25.2827 25.3865 25.2415C25.9804 25.118 26.1275 25.3691 26.1051 25.9288C26.0598 27.056 26.1007 28.1867 26.0529 29.3137C26.029 29.8749 26.1525 30.1498 26.7779 30.0911C27.1396 30.0572 27.5129 30.1444 27.8808 30.1785C28.7663 30.2606 29.3498 30.7593 29.6834 31.5493C30.0069 32.3156 29.9197 33.0674 29.3228 33.6574C28.3145 34.654 27.258 35.6018 26.1539 36.6209ZM66.8823 15.4092C66.8964 15.8175 66.916 16.2258 66.9236 16.6342C66.9373 17.364 66.8264 17.5259 66.1139 17.5348C64.1688 17.5592 62.223 17.5609 60.2778 17.5404C59.521 17.5325 59.452 17.4368 59.4835 16.6642C59.5571 14.8571 59.6402 13.0502 59.7417 11.2445C59.7663 10.8076 59.6269 10.6698 59.1881 10.6766C57.6923 10.6996 56.1954 10.7087 54.7001 10.6735C54.1378 10.6603 54.0044 10.8652 54.0255 11.3881C54.1341 14.0706 54.2893 16.7543 54.285 19.4374C54.2801 22.4901 54.1328 25.5429 54.0256 28.5949C54.0061 29.1507 54.2122 29.3835 54.7571 29.3807C56.1572 29.3734 57.5575 29.3898 58.9575 29.3767C59.6406 29.3703 59.7329 29.2658 59.719 28.5817C59.6805 26.695 59.6263 24.8085 59.5877 22.9217C59.5704 22.0742 59.6315 21.9973 60.4507 21.9911C62.2786 21.9771 64.1067 21.9769 65.9346 21.991C66.7467 21.9972 66.8311 22.095 66.8078 22.9198C66.7545 24.8059 66.6805 26.6914 66.6281 28.5775C66.6077 29.311 66.6648 29.3723 67.4238 29.3788C68.7848 29.3904 70.1464 29.3893 71.5073 29.368C72.3514 29.3548 72.362 29.3335 72.3414 28.5098C72.263 25.3792 72.1208 22.249 72.111 19.1183C72.1029 16.5324 72.2399 13.9458 72.3321 11.3601C72.3502 10.8551 72.1835 10.6675 71.6674 10.6766C70.2302 10.7018 68.792 10.7022 67.3548 10.6762C66.8563 10.6672 66.7067 10.8549 66.7299 11.3278C66.7945 12.6487 66.8306 13.9711 66.8823 15.4092ZM165.503 29.4652C166.106 29.4528 166.71 29.4613 167.311 29.4229C168.093 29.3728 168.132 29.3215 168.126 28.5498C168.109 26.3707 168.099 24.1914 168.055 22.0129C168.042 21.3674 168.359 20.9973 168.884 20.7424C169.092 20.642 169.317 20.5784 169.535 20.5024C170.844 20.0471 171.776 20.6889 171.77 22.0603C171.759 24.2201 171.743 26.3801 171.704 28.5395C171.694 29.0969 171.887 29.3856 172.462 29.39C173.589 29.3986 174.717 29.4088 175.844 29.4336C176.444 29.4468 176.646 29.1782 176.643 28.5831C176.627 25.6644 176.649 22.7456 176.649 19.8268C176.649 18.2007 175.776 17.0222 174.227 16.5073C172.355 15.8854 170.67 16.3292 169.089 17.3898C168.774 17.6009 168.456 17.8079 168.07 18.063C168.043 17.8194 168.012 17.673 168.014 17.527C168.029 16.3403 168.038 15.1533 168.073 13.967C168.103 12.9365 168.164 11.907 168.212 10.877C168.226 10.5782 168.216 10.3319 167.788 10.3753C166.299 10.5263 164.809 10.6593 163.318 10.7935C162.934 10.8281 162.808 10.9807 162.838 11.3995C162.99 13.4728 163.172 15.548 163.206 17.6248C163.266 21.2625 163.237 24.9019 163.217 28.5404C163.214 29.1257 163.458 29.3576 163.99 29.389C164.456 29.4164 164.922 29.4403 165.503 29.4652ZM94.1491 28.6569C96.5954 30.1645 98.8802 30.0308 101.028 27.8264C101.105 28.285 101.16 28.5998 101.211 28.9152C101.271 29.2846 101.421 29.4973 101.86 29.474C102.986 29.4142 104.115 29.3935 105.243 29.3649C105.713 29.3529 105.898 29.1144 105.88 28.6588C105.854 27.9981 105.876 27.3345 105.826 26.6758C105.601 23.6633 105.478 20.6553 106.087 17.6679C106.153 17.343 106.058 17.1535 105.711 17.0866C104.587 16.8699 103.466 16.6407 102.345 16.4128C101.969 16.3365 101.814 16.5638 101.713 16.8617C101.622 17.1317 101.543 17.406 101.485 17.5933C100.814 17.1869 100.217 16.6884 99.5296 16.4344C97.2598 15.5957 94.2366 16.5559 92.7509 18.4677C90.7312 21.0667 90.6495 26.0871 94.1491 28.6569ZM122.651 18.8422C122.557 22.0302 122.46 25.2181 122.37 28.4063C122.345 29.2923 122.392 29.3732 123.248 29.388C124.627 29.4119 126.007 29.3704 127.386 29.3796C127.953 29.3835 128.156 29.1794 128.133 28.5839C128.026 25.7465 127.946 22.9078 127.89 20.0689C127.856 18.3454 127.883 16.6207 127.883 15.0274C129.262 15.0274 130.503 15.0044 131.743 15.0387C132.241 15.0524 132.379 14.9082 132.347 14.4119C132.278 13.3686 132.274 12.3211 132.246 11.2752C132.24 11.0489 132.245 10.8222 132.245 10.5332C131.738 10.5572 131.314 10.5608 130.893 10.5999C127.031 10.9592 123.166 11.0474 119.302 10.6597C118.777 10.607 118.617 10.7863 118.552 11.2522C118.389 12.4225 118.196 13.5888 118.019 14.7574C118.002 14.8684 118.017 14.9842 118.017 15.2106C119.531 15.1231 121.012 15.0374 122.649 14.9427C122.649 16.2134 122.649 17.4737 122.651 18.8422ZM179.912 21.7115C179.894 21.8857 179.87 22.0594 179.859 22.2339C179.683 25.0693 180.695 27.4461 183.235 28.8306C184.886 29.7312 186.676 29.851 188.505 29.65C189.845 29.5028 191.091 29.1057 192.103 28.1699C192.273 28.0132 192.503 27.7168 192.455 27.5634C192.13 26.5261 191.626 25.5776 190.873 24.7678C190.59 24.9374 190.356 25.0749 190.125 25.2167C189.079 25.8583 187.951 26.1294 186.726 25.9833C185.533 25.8411 184.694 25.2347 184.49 24.3177C184.801 24.2883 185.106 24.2578 185.412 24.2306C187.426 24.0517 189.442 23.893 191.454 23.6878C192.651 23.5656 192.982 23.1466 192.943 21.9422C192.884 20.1125 192.144 18.5877 190.772 17.3999C188.785 15.6801 186.484 15.4498 184.101 16.3054C181.651 17.1852 180.355 19.0845 179.912 21.7115ZM79.8442 16.3502C77.3775 17.4093 76.0699 19.3388 75.7963 21.9506C75.5161 24.6264 76.2691 26.9284 78.5959 28.504C80.3447 29.6882 82.3212 29.8712 84.3576 29.6577C85.7357 29.5133 87.0278 29.1178 88.0482 28.1201C88.2144 27.9576 88.3881 27.6171 88.3267 27.4384C87.9923 26.4648 87.5079 25.5627 86.7873 24.7664C86.4454 24.9704 86.1389 25.1716 85.8163 25.3425C84.4061 26.0896 82.9526 26.3066 81.4549 25.622C80.9161 25.3758 80.4922 24.9996 80.3804 24.3192C80.6842 24.2885 80.9518 24.259 81.22 24.235C83.3111 24.0475 85.4035 23.873 87.493 23.6693C88.5238 23.5689 88.8262 23.2074 88.8392 22.156C88.8628 20.2491 88.1158 18.6664 86.7043 17.4262C84.692 15.6582 82.3769 15.516 79.8442 16.3502ZM143.013 25.971C142.11 26.0799 141.224 26.0422 140.396 25.6179C139.872 25.349 139.442 24.9909 139.338 24.3183C139.648 24.2876 139.917 24.2586 140.186 24.2344C142.277 24.0468 144.37 23.8714 146.459 23.6683C147.463 23.5709 147.788 23.1759 147.805 22.149C147.843 19.7401 146.34 17.3797 144.106 16.4042C140.652 14.8969 135.651 16.4116 134.828 21.4665C134.367 24.296 135.045 26.7764 137.534 28.4883C139.292 29.6977 141.29 29.8751 143.348 29.6518C144.728 29.5022 146.012 29.0966 147.032 28.0987C147.181 27.9537 147.361 27.6693 147.311 27.5217C146.972 26.5107 146.478 25.5771 145.837 24.8666C144.866 25.2563 143.991 25.6075 143.013 25.971ZM151.492 24.455C151.47 25.2325 151.421 26.0104 151.434 26.7874C151.454 28.0712 152.178 29.0262 153.417 29.3442C155.502 29.8794 157.501 29.5901 159.386 28.5637C159.575 28.4606 159.772 28.2058 159.799 27.9996C159.9 27.2302 159.919 26.4504 159.994 25.6771C160.041 25.1936 159.811 25.1014 159.405 25.1809C158.929 25.2739 158.455 25.3946 157.974 25.4416C156.93 25.5439 156.314 25.1174 156.239 24.1858C156.162 23.2377 156.173 22.2822 156.154 21.3298C156.147 20.9854 156.277 20.8094 156.677 20.8279C157.473 20.8647 158.272 20.8344 159.068 20.8578C159.474 20.8697 159.603 20.719 159.604 20.3117C159.606 19.3216 159.642 18.3307 159.7 17.3422C159.724 16.9245 159.635 16.7238 159.171 16.7554C158.415 16.8071 157.656 16.8242 156.899 16.8476C156.237 16.868 156.098 16.7523 156.122 16.0825C156.154 15.1697 156.21 14.2565 156.297 13.3474C156.341 12.8948 156.184 12.7275 155.744 12.6736C154.627 12.5367 153.514 12.3681 152.401 12.1958C151.523 12.0597 151.443 12.0998 151.428 13.0277C151.41 14.1163 151.446 15.2056 151.436 16.2944C151.429 17.1182 151.409 17.0958 150.602 17.2177C150.39 17.2497 150.043 17.4592 150.036 17.6005C149.987 18.6227 150.01 19.6482 150.01 20.7042C150.287 20.72 150.496 20.7363 150.706 20.7432C151.419 20.7666 151.558 20.9011 151.55 21.604C151.539 22.518 151.517 23.4319 151.492 24.455ZM115.014 15.6801C115.089 14.2039 115.149 12.7267 115.247 11.252C115.278 10.7818 115.128 10.6514 114.664 10.6605C113.225 10.6886 111.785 10.69 110.346 10.6608C109.813 10.65 109.687 10.8198 109.743 11.3407C109.89 12.6925 110.062 14.0504 110.069 15.4067C110.094 19.783 110.048 24.1598 110.031 28.5364C110.029 29.306 110.066 29.3748 110.853 29.3965C111.96 29.427 113.068 29.4242 114.175 29.3919C115.005 29.3677 114.992 29.337 114.992 28.508C114.994 24.2689 115.003 20.0298 115.014 15.6801ZM201.066 26.8442C201.061 25.5595 201.038 24.2744 201.057 22.99C201.071 21.9732 201.395 21.6016 202.392 21.5157C203.046 21.4593 203.71 21.52 204.37 21.5302C204.809 21.5369 205.051 21.3787 205.059 20.8841C205.08 19.6404 205.119 18.3961 205.192 17.1546C205.221 16.6715 205.001 16.479 204.592 16.533C203.905 16.6239 203.202 16.7111 202.552 16.9346C201.922 17.1514 201.35 17.538 200.699 17.8774C200.638 17.4748 200.572 17.114 200.531 16.7505C200.486 16.3629 200.31 16.2202 199.908 16.2903C198.626 16.5143 197.34 16.7198 196.054 16.9197C195.68 16.9777 195.567 17.1319 195.669 17.5138C196.15 19.3139 196.244 21.1581 196.238 23.0096C196.232 24.8783 196.214 26.747 196.191 28.6156C196.186 29.0365 196.265 29.3612 196.773 29.3632C198.077 29.3681 199.38 29.3706 200.683 29.3726C201.05 29.3732 201.208 29.1934 201.18 28.822C201.134 28.2012 201.105 27.579 201.066 26.8442ZM140.667 39.237C140.667 38.3702 140.667 37.5034 140.667 36.4457C140.296 36.6575 140.071 36.7862 139.816 36.9316C138.611 35.9173 137.174 36.6368 136.758 37.7869C136.635 38.129 136.561 38.4992 136.529 38.8623C136.412 40.1851 137.166 41.2264 138.374 41.3145C138.845 41.3489 139.333 41.1462 139.956 41.0234C139.84 41.472 139.848 42.038 139.575 42.3778C138.854 43.2765 137.813 42.8629 136.89 42.7936C136.736 43.2237 136.893 43.4008 137.27 43.4994C139.383 44.0516 140.667 43.086 140.667 40.9283C140.667 40.4035 140.667 39.8786 140.667 39.237ZM106.102 38.3026C106.102 39.2673 106.102 40.2321 106.102 41.2421C106.413 41.2265 106.636 41.2154 106.934 41.2005C106.934 40.1887 106.934 39.23 106.934 38.2833C108.093 38.2833 109.174 38.2833 110.325 38.2833C110.325 39.2802 110.325 40.2409 110.325 41.1788C110.9 41.3408 111.136 41.2232 111.125 40.6253C111.093 38.8549 111.113 37.0835 111.113 35.3125C111.113 35.1277 111.113 34.943 111.113 34.761C110.795 34.761 110.573 34.761 110.277 34.761C110.277 35.7033 110.277 36.6055 110.277 37.493C109.121 37.493 108.04 37.493 106.885 37.493C106.885 36.553 106.885 35.6518 106.885 34.7637C106.588 34.7637 106.366 34.7637 106.102 34.7637C106.102 35.9338 106.102 37.0598 106.102 38.3026ZM146.914 34.7195C146.263 34.7195 145.613 34.7195 144.941 34.7195C144.929 34.9827 144.914 35.1543 144.913 35.326C144.912 37.0929 144.911 38.8599 144.913 40.6269C144.914 41.2858 144.978 41.3283 145.739 41.1406C145.739 40.3131 145.739 39.4682 145.739 38.5867C146.054 38.5867 146.31 38.6196 146.554 38.58C147.105 38.4906 147.673 38.4293 148.192 38.2397C148.955 37.9606 149.34 37.2919 149.315 36.5083C149.29 35.7156 148.862 35.1358 148.054 34.884C147.726 34.7818 147.369 34.7727 146.914 34.7195ZM28.9735 32.7653C29.1361 31.9185 28.8023 31.2578 28.0189 31.135C27.3844 31.0355 26.7218 31.1148 26.0151 31.1148C26.0151 32.7544 26.0151 34.3303 26.0151 36.0007C27.1461 35.0099 28.3007 34.1716 28.9735 32.7653ZM22.8745 26.7887C22.4765 27.2132 22.0468 27.6127 21.6874 28.0678C21.0726 28.8465 21.3677 29.7796 22.3426 29.9796C23.0444 30.1235 23.7872 30.0671 24.4503 30.0973C24.4503 28.5313 24.4503 27.0825 24.4503 25.6338C24.3955 25.6121 24.3407 25.5905 24.2859 25.5689C23.8351 25.956 23.3842 26.3432 22.8745 26.7887ZM121.854 36.7788C121.149 36.3706 120.407 36.4354 119.649 36.585C119.206 36.6724 119.116 36.9009 119.281 37.2858C121.423 37.0405 121.897 37.2849 121.698 38.5259C120.674 38.3342 119.619 38.0829 118.957 39.2299C118.648 39.7642 118.819 40.5401 119.259 40.9496C119.855 41.5051 120.689 41.4726 121.615 40.9187C121.899 41.0453 122.109 41.139 122.318 41.2326C122.395 41.0212 122.531 40.8118 122.538 40.5979C122.565 39.8215 122.544 39.0436 122.55 38.2663C122.555 37.6925 122.404 37.1924 121.854 36.7788ZM153.943 40.8356C154.041 41.2718 154.303 41.323 154.696 41.1585C154.696 40.1171 154.704 39.0891 154.694 38.0613C154.686 37.2913 154.302 36.735 153.545 36.5922C153.007 36.4909 152.433 36.543 151.879 36.5794C151.423 36.6092 151.3 36.8834 151.486 37.2982C153.379 36.9317 154.086 37.2865 153.842 38.3907C153.214 38.4195 152.589 38.3713 152 38.4954C151.322 38.6383 150.939 39.2758 150.977 39.9398C151.019 40.673 151.448 41.1495 152.178 41.3063C152.824 41.4448 153.358 41.2152 153.943 40.8356ZM113.514 40.4588C114.284 41.4582 115.332 41.4281 116.423 41.2432C116.891 41.1638 116.967 40.9003 116.802 40.5016C114.833 40.9092 113.793 40.3904 113.987 39.0506C114.998 39.0506 116.019 39.0506 117.065 39.0506C117.065 38.7412 117.092 38.489 117.061 38.2445C116.925 37.2046 116.342 36.5608 115.495 36.4888C114.41 36.3966 113.571 36.9385 113.27 37.961C113.027 38.7875 113.023 39.6081 113.514 40.4588ZM174.727 37.8073C174.536 37.109 174.111 36.6303 173.385 36.5056C172.624 36.3751 171.953 36.5817 171.443 37.1884C170.815 37.9339 170.66 39.5284 171.217 40.3279C171.466 40.6852 171.874 41.052 172.276 41.1547C172.875 41.3078 173.534 41.2649 174.166 41.24C174.594 41.2231 174.777 40.9523 174.606 40.5162C172.483 40.8439 171.665 40.4472 171.694 39.0465C172.733 39.0465 173.775 39.0465 174.891 39.0465C174.842 38.6167 174.801 38.2565 174.727 37.8073ZM92.0955 39.0965C92.0911 38.8833 92.1013 38.6686 92.0798 38.4571C91.976 37.4379 91.2883 36.6568 90.3712 36.504C89.2592 36.3188 88.3335 36.7826 87.9243 37.73C87.4482 38.8321 87.7117 40.2759 88.5244 40.8816C89.2131 41.3949 89.9804 41.4987 90.7758 41.1687C91.641 40.8097 92.0018 40.0904 92.0955 39.0965ZM82.3465 36.0136C82.5284 36.3125 82.6801 36.6358 82.8977 36.906C83.7734 37.9933 84.0634 39.2215 83.9288 40.5983C83.8609 41.2922 83.9889 41.3467 84.7282 41.1352C84.7282 40.7757 84.7682 40.4018 84.7206 40.0395C84.5863 39.0169 84.9088 38.1534 85.4853 37.3222C86.0459 36.5138 86.5221 35.6468 87.0431 34.7928C86.4523 34.5872 86.1331 34.7791 85.8676 35.2691C85.4022 36.1281 84.87 36.9509 84.32 37.865C83.7433 36.9006 83.2056 36.0463 82.7163 35.1651C82.4592 34.7019 82.1404 34.6249 81.6243 34.8162C81.8649 35.2177 82.0821 35.5801 82.3465 36.0136ZM96.9954 39.7487C96.7639 40.5515 96.199 40.8667 95.4614 40.6132C94.9387 40.4335 94.7619 40.037 94.761 39.5266C94.7592 38.5624 94.7605 37.5982 94.7605 36.6429C94.4468 36.6429 94.226 36.6429 93.9723 36.6429C93.9723 37.6976 93.9347 38.7077 93.983 39.7137C94.0299 40.6904 94.7186 41.2826 95.767 41.3545C96.7795 41.4238 97.6531 40.8745 97.7367 39.9401C97.8344 38.8484 97.7596 37.7413 97.7596 36.6389C97.5032 36.6389 97.2818 36.6389 97.0028 36.6389C97.0028 37.669 97.0028 38.657 96.9954 39.7487ZM130.793 36.845C130.793 38.2764 130.793 39.7078 130.793 41.1519C131.089 41.1519 131.307 41.1519 131.569 41.1519C131.569 40.1588 131.562 39.21 131.572 38.2614C131.577 37.7133 132.259 37.1327 132.896 37.1108C133.451 37.0917 133.761 37.3786 133.83 38.0656C133.882 38.5851 133.867 39.1119 133.873 39.6355C133.879 40.1344 133.874 40.6333 133.874 41.1592C134.151 41.1592 134.351 41.1592 134.589 41.1592C134.589 39.9824 134.636 38.8385 134.572 37.7009C134.528 36.9263 133.97 36.4411 133.195 36.5052C132.633 36.5517 132.089 36.8083 131.506 36.9802C131.45 36.6186 131.253 36.3837 130.793 36.845ZM168.527 36.8462C167.594 36.1773 166.744 36.4432 165.91 37.1357C165.782 36.7655 165.673 36.3882 165.212 36.6854C165.212 38.1787 165.212 39.651 165.212 41.1591C165.447 41.1591 165.648 41.1591 165.913 41.1591C165.913 40.2595 165.912 39.3882 165.913 38.5169C165.913 37.7729 166.424 37.2032 167.165 37.1177C167.664 37.0602 168.076 37.3087 168.128 37.817C168.206 38.5682 168.197 39.3286 168.217 40.0853C168.227 40.4443 168.219 40.8039 168.219 41.1636C168.512 41.1636 168.699 41.1636 168.928 41.1636C168.928 39.9702 168.947 38.8073 168.912 37.646C168.905 37.3979 168.702 37.1557 168.527 36.8462ZM26.2068 20.4237C26.2068 20.7617 26.2068 21.0996 26.2068 21.4376C26.2651 21.463 26.3234 21.4883 26.3818 21.5137C27.1453 20.6774 27.9465 19.8716 28.6587 18.9936C29.1064 18.4415 28.8452 17.8366 28.1409 17.6812C27.7109 17.5864 27.2562 17.6037 26.8125 17.5719C26.4782 17.548 26.3248 17.681 26.3172 18.0399C26.3012 18.7967 26.2468 19.5527 26.2068 20.4237ZM26.5879 4.96796C26.5074 5.77286 26.4269 6.57777 26.3465 7.38267C26.4153 7.40398 26.4841 7.4253 26.5529 7.44662C27.7664 6.30714 28.9799 5.16766 30.1934 4.02818C29.4916 3.89645 28.8936 3.8804 28.2968 3.90056C27.5696 3.92511 26.9913 4.22881 26.5879 4.96796ZM162.182 41.2859C162.415 41.2931 162.648 41.3011 162.881 41.3072C163.379 41.3202 163.547 41.1037 163.364 40.6179C163.155 40.6412 162.964 40.6836 162.773 40.6794C162.366 40.6703 162.001 40.5137 161.983 40.0689C161.944 39.1444 161.971 38.2173 161.971 37.2225C162.448 37.2225 162.865 37.2225 163.336 37.2225C163.324 36.9723 163.315 36.7953 163.304 36.5622C162.82 36.5622 162.401 36.5622 161.927 36.5622C161.927 36.1229 161.927 35.7431 161.927 35.3645C161.664 35.3645 161.462 35.3645 161.24 35.3645C161.221 35.784 161.204 36.1647 161.186 36.563C160.879 36.5888 160.616 36.6108 160.342 36.6337C160.342 36.8351 160.342 36.9997 160.342 37.1588C161.215 37.2925 161.215 37.2925 161.215 38.1767C161.215 38.7801 161.226 39.3836 161.213 39.9867C161.198 40.629 161.454 41.0731 162.182 41.2859ZM125.494 40.2817C125.494 38.2515 125.494 36.2213 125.494 34.1847C125.188 34.1847 124.963 34.1847 124.708 34.1847C124.708 36.5498 124.708 38.8868 124.708 41.2409C124.977 41.2409 125.215 41.2409 125.494 41.2409C125.494 40.9331 125.494 40.6645 125.494 40.2817ZM100.658 37.15C100.496 36.5547 100.496 36.5547 99.9611 36.6865C99.9611 38.1931 99.9611 39.6976 99.9611 41.1882C100.535 41.3553 100.767 41.1818 100.715 40.6095C100.679 40.2046 100.708 39.7938 100.708 39.3856C100.708 37.5939 100.708 37.5939 102.44 37.1291C102.44 36.9283 102.44 36.7256 102.44 36.5214C101.707 36.3667 101.219 36.7482 100.658 37.15ZM158.913 37.2472C159.079 37.2144 159.244 37.1816 159.399 37.151C159.399 36.9149 159.399 36.7154 159.399 36.3135C158.725 36.5998 158.166 36.8375 157.597 37.0793C157.557 36.9648 157.495 36.7883 157.428 36.5987C157.249 36.6106 157.101 36.6203 156.931 36.6316C156.931 38.1653 156.931 39.6687 156.931 41.2028C157.166 41.2028 157.368 41.2028 157.629 41.2028C157.629 40.3759 157.629 39.5847 157.629 38.7935C157.629 37.7667 157.821 37.5229 158.913 37.2472ZM177.247 36.6007C177.121 36.698 176.889 36.7936 176.887 36.893C176.863 38.3033 176.871 39.714 176.871 41.1597C177.134 41.1597 177.334 41.1597 177.601 41.1597C177.601 40.3985 177.601 39.6665 177.601 38.9345C177.601 37.7096 177.832 37.4343 179.048 37.2132C179.157 37.1933 179.267 37.1741 179.373 37.1551C179.373 36.92 179.373 36.7195 179.373 36.5157C178.619 36.389 178.106 36.7437 177.642 37.2154C177.538 37.0059 177.44 36.8088 177.247 36.6007ZM24.1945 15.4855C24.1945 14.6256 24.1945 13.7658 24.1945 12.9059C24.1404 12.8779 24.0864 12.8499 24.0323 12.8219C23.4478 13.3731 22.8225 13.8882 22.2923 14.4875C21.8995 14.9316 22.1788 15.6139 22.7632 15.6726C23.2079 15.7173 23.6689 15.5989 24.1945 15.4855ZM128.549 36.8168C128.343 36.7238 128.137 36.6309 127.864 36.5079C127.864 38.1612 127.864 39.6584 127.864 41.1963C128.109 41.1832 128.31 41.1724 128.488 41.163C128.52 41.0636 128.542 41.0277 128.542 40.9917C128.547 39.6369 128.55 38.2821 128.549 36.8168ZM128.511 35.4425C128.511 35.1995 128.511 34.9564 128.511 34.7196C127.832 34.5949 127.677 34.7095 127.763 35.2374C127.839 35.7079 128.18 35.5032 128.511 35.4425Z" fill="#FEFFFF"/>
<path d="M20.4064 41.8958C21.339 41.0748 22.274 40.2565 23.2034 39.4319C23.712 38.9807 24.2113 38.5191 24.8043 37.9809C24.8389 38.6148 24.8871 39.1586 24.8946 39.7029C24.9101 40.8311 24.8946 41.9598 24.9122 43.0879C24.9179 43.4581 24.7933 43.6167 24.4096 43.6141C22.678 43.602 20.9461 43.6212 19.2147 43.5977C18.4303 43.5871 18.3957 43.5176 18.394 42.7501C18.3858 39.0341 18.378 35.3182 18.3692 31.6023C18.3673 30.8075 18.366 30.7642 17.597 30.7533C15.9264 30.7296 14.2551 30.7552 12.584 30.7594C10.5234 30.7646 8.46273 30.768 6.40208 30.7732C5.54751 30.7754 5.45483 30.7011 5.44988 29.8567C5.43789 27.8142 5.41055 25.771 5.45105 23.7293C5.4675 22.9 5.58635 22.0616 5.75879 21.2486C6.22886 19.0322 7.97536 17.4647 10.1964 17.1014C12.576 16.7122 14.9651 16.8557 17.3535 16.8794C18.3957 16.8897 18.4026 16.8806 18.3997 15.8516C18.3899 12.3497 18.3823 8.84775 18.3839 5.34585C18.3846 3.92893 18.3965 3.91865 19.7755 3.92886C20.7083 3.93576 21.6435 3.94201 22.5729 4.01164C23.5901 4.08784 24.1371 4.57908 24.2098 5.57151C24.3049 6.86891 24.3429 8.17621 24.2919 9.4748C24.2782 9.82512 23.8981 10.2036 23.6096 10.4926C22.7448 11.3587 21.7898 12.1393 20.9678 13.0424C19.9982 14.1077 20.0036 15.4465 20.838 16.6243C21.3092 17.2895 21.971 17.6091 22.7584 17.696C23.028 17.7257 23.3027 17.7067 23.5747 17.7184C24.2496 17.7476 24.443 17.9302 24.4612 18.6006C24.4982 19.9613 24.5296 21.3222 24.547 22.6833C24.5549 23.3045 24.3706 23.839 23.9048 24.3077C22.9729 25.2454 22.0755 26.2191 21.1961 27.2067C20.2803 28.2352 20.1926 29.1883 20.8583 30.171C21.2687 30.7767 21.8345 31.1101 22.5684 31.1236C23.261 31.1363 23.9541 31.1263 24.818 31.1263C24.818 32.6743 24.7105 34.0806 24.8477 35.4625C24.9897 36.8943 24.5671 37.9059 23.4343 38.8013C22.3262 39.6772 21.3763 40.7532 20.3162 41.7927C20.2443 41.8698 20.2265 41.9028 20.195 41.9633C20.1625 42.0247 20.157 42.0659 20.1331 42.1045C20.1248 42.1008 20.1347 42.0996 20.1733 42.0918C20.2259 42.0559 20.2498 42.0266 20.3026 41.9905C20.3564 41.9545 20.3814 41.9251 20.4064 41.8958Z" fill="#53CFAC"/>
<path d="M26.312 36.7162C27.3821 35.7227 28.4386 34.7752 29.4468 33.7788C30.0437 33.189 30.1309 32.4374 29.8073 31.6712C29.4738 30.8814 28.8904 30.3828 28.0049 30.3008C27.637 30.2667 27.2638 30.1795 26.9021 30.2134C26.2767 30.2721 26.1532 29.9973 26.177 29.4361C26.2249 28.3094 26.184 27.179 26.2292 26.0521C26.2517 25.4925 26.1045 25.2415 25.5107 25.365C25.3128 25.4061 25.0992 25.3715 24.7974 25.3715C24.9417 25.2112 25.0195 25.1116 25.1104 25.0259C26.6237 23.5999 28.1328 22.1695 29.6552 20.7532C30.6804 19.7995 30.937 18.4431 30.2959 17.2532C29.8737 16.4697 29.2212 16.0453 28.3373 15.9845C27.8522 15.9512 27.3658 15.9287 26.8797 15.9229C26.5328 15.9187 26.3982 15.7752 26.4108 15.4245C26.436 14.7248 26.4058 14.0225 26.4476 13.3242C26.4762 12.8478 26.2537 12.6967 25.8361 12.6959C25.4881 12.6953 25.1401 12.6958 24.7921 12.6958C24.7572 12.6444 24.7224 12.593 24.6875 12.5416C27.179 10.3985 29.6705 8.25544 32.2498 6.03687C32.2681 6.30053 32.2885 6.45947 32.2889 6.61847C32.2979 9.8091 32.3048 12.9997 32.3115 16.1904C32.3131 16.934 32.312 16.9324 33.0853 16.9324C36.8992 16.9326 40.7131 16.9337 44.527 16.9344C44.7384 16.9345 44.9499 16.9344 45.1615 16.9344C45.1983 17.0225 45.2376 17.0725 45.2371 17.1219C45.2097 19.4551 45.2485 21.7917 45.1315 24.1205C44.9717 27.3046 42.631 29.9619 39.4656 30.3852C37.3578 30.667 35.2037 30.61 33.0696 30.6856C32.285 30.7134 32.2903 30.6884 32.2913 31.4867C32.2942 33.7824 32.3116 36.0783 32.2824 38.3736C32.2685 39.4665 32.1166 40.5482 31.4685 41.4843C30.4552 42.9478 28.9973 43.576 27.2744 43.61C25.6912 43.6412 25.9068 43.8139 25.8796 42.284C25.8538 40.8254 25.8317 39.3659 25.7551 37.9096C25.728 37.3933 25.8181 37.0041 26.312 36.7162Z" fill="#110C2C"/>
<path d="M67.0044 15.4755C66.9549 14.0959 66.9188 12.7739 66.8541 11.4533C66.831 10.9804 66.9805 10.7929 67.4791 10.8019C68.9161 10.8278 70.3543 10.8275 71.7914 10.8022C72.3075 10.7932 72.4741 10.9807 72.4561 11.4856C72.3638 14.0706 72.2269 16.6566 72.2349 19.2419C72.2447 22.3718 72.3869 25.5013 72.4653 28.6311C72.486 29.4546 72.4754 29.4759 71.6313 29.4891C70.2704 29.5104 68.909 29.5115 67.548 29.4999C66.7891 29.4934 66.732 29.4321 66.7523 28.6988C66.8048 26.8132 66.8788 24.9281 66.932 23.0425C66.9553 22.2178 66.871 22.1201 66.0589 22.1138C64.2312 22.0998 62.4031 22.1 60.5753 22.1139C59.7561 22.1202 59.695 22.1971 59.7124 23.0444C59.751 24.9307 59.8052 26.8167 59.8436 28.703C59.8576 29.3869 59.7652 29.4914 59.0822 29.4978C57.6823 29.5108 56.2821 29.4945 54.8821 29.5018C54.3372 29.5046 54.1311 29.2719 54.1506 28.7162C54.2578 25.665 54.4051 22.6129 54.41 19.5609C54.4143 16.8785 54.2591 14.1954 54.1505 11.5135C54.1294 10.9908 54.2628 10.786 54.825 10.7992C56.3202 10.8343 57.8171 10.8253 59.3128 10.8022C59.7515 10.7955 59.8909 10.9332 59.8664 11.3699C59.7648 13.1753 59.6818 14.9817 59.6082 16.7884C59.5767 17.5608 59.6457 17.6564 60.4024 17.6644C62.3475 17.6849 64.2932 17.6831 66.2382 17.6588C66.9506 17.6499 67.0615 17.488 67.0479 16.7584C67.0403 16.35 67.0207 15.9419 67.0044 15.4755Z" fill="#120D2D"/>
<path d="M165.564 29.5883C165.041 29.5632 164.575 29.5393 164.109 29.5119C163.577 29.4805 163.333 29.2487 163.336 28.6635C163.357 25.0259 163.386 21.3873 163.326 17.7505C163.292 15.6742 163.109 13.5996 162.958 11.5268C162.927 11.108 163.053 10.9555 163.437 10.9209C164.928 10.7868 166.419 10.6537 167.908 10.5028C168.335 10.4595 168.345 10.7057 168.331 11.0044C168.283 12.0341 168.222 13.0634 168.192 14.0936C168.157 15.2796 168.148 16.4663 168.133 17.6528C168.131 17.7987 168.162 17.9451 168.189 18.1887C168.576 17.9336 168.893 17.7267 169.208 17.5156C170.789 16.4553 172.474 16.0116 174.345 16.6333C175.895 17.1481 176.768 18.3263 176.768 19.952C176.768 22.8701 176.745 25.7882 176.761 28.7062C176.765 29.3012 176.562 29.5697 175.963 29.5565C174.835 29.5317 173.708 29.5215 172.581 29.5129C172.005 29.5085 171.813 29.2199 171.823 28.6626C171.862 26.5037 171.878 24.3443 171.888 22.185C171.895 20.8139 170.963 20.1722 169.654 20.6274C169.436 20.7034 169.211 20.767 169.004 20.8674C168.478 21.1222 168.161 21.4923 168.174 22.1375C168.218 24.3156 168.228 26.4944 168.245 28.6729C168.252 29.4444 168.212 29.4957 167.43 29.5457C166.829 29.5842 166.225 29.5757 165.564 29.5883Z" fill="#120D2D"/>
<path d="M94.2365 28.7545C90.7707 26.2109 90.8524 21.1917 92.872 18.5934C94.3576 16.682 97.3807 15.722 99.6503 16.5606C100.338 16.8145 100.935 17.3129 101.606 17.7191C101.664 17.5319 101.742 17.2576 101.834 16.9877C101.934 16.6899 102.09 16.4626 102.465 16.539C103.587 16.7668 104.708 16.9959 105.831 17.2125C106.178 17.2794 106.273 17.4689 106.207 17.7937C105.598 20.7804 105.722 23.7877 105.947 26.7995C105.996 27.4579 105.974 28.1214 106.001 28.782C106.019 29.2375 105.833 29.4759 105.363 29.4879C104.235 29.5165 103.107 29.5372 101.98 29.5969C101.541 29.6202 101.391 29.4076 101.332 29.0383C101.281 28.723 101.226 28.4083 101.149 27.9497C99.0009 30.1536 96.7163 30.2873 94.2365 28.7545ZM96.2143 23.6427C96.2826 23.8029 96.3393 23.9694 96.4211 24.1224C96.9997 25.2059 98.2328 25.7176 99.5002 25.4059C100.599 25.1357 101.323 24.1786 101.352 22.9581C101.383 21.6585 100.78 20.7685 99.5598 20.4588C98.0111 20.0658 96.2344 20.6982 96.12 22.6861C96.1035 22.9724 96.1661 23.2633 96.2143 23.6427Z" fill="#110D2C"/>
<path d="M122.772 18.9148C122.771 17.6007 122.771 16.3407 122.771 15.0703C121.134 15.165 119.652 15.2506 118.139 15.3382C118.139 15.1118 118.124 14.9961 118.141 14.8851C118.318 13.7168 118.51 12.5508 118.674 11.3807C118.739 10.9149 118.899 10.7357 119.424 10.7883C123.288 11.176 127.152 11.0878 131.014 10.7286C131.435 10.6895 131.859 10.6859 132.366 10.6619C132.366 10.9508 132.36 11.1774 132.366 11.4037C132.395 12.4493 132.399 13.4966 132.468 14.5396C132.5 15.0358 132.362 15.18 131.864 15.1662C130.624 15.1319 129.383 15.1549 128.005 15.1549C128.005 16.7479 127.977 18.4722 128.011 20.1953C128.067 23.0335 128.147 25.8715 128.255 28.7082C128.277 29.3035 128.074 29.5076 127.507 29.5037C126.128 29.4945 124.748 29.536 123.369 29.5121C122.514 29.4973 122.466 29.4165 122.491 28.5306C122.582 25.3432 122.678 22.1561 122.772 18.9148Z" fill="#120D2D"/>
<path d="M180.031 21.784C180.469 19.2087 181.765 17.3098 184.215 16.4302C186.597 15.5748 188.898 15.8051 190.885 17.5245C192.257 18.712 192.997 20.2364 193.056 22.0656C193.095 23.2698 192.764 23.6887 191.567 23.8108C189.555 24.0159 187.539 24.1747 185.525 24.3535C185.22 24.3807 184.914 24.4112 184.603 24.4406C184.807 25.3574 185.647 25.9636 186.839 26.1058C188.064 26.2518 189.192 25.9808 190.238 25.3393C190.469 25.1976 190.703 25.0601 190.986 24.8906C191.739 25.7002 192.243 26.6485 192.568 27.6855C192.616 27.8389 192.386 28.1351 192.216 28.2918C191.204 29.2274 189.958 29.6244 188.618 29.7716C186.789 29.9726 185 29.8528 183.348 28.9524C180.809 27.5682 179.797 25.192 179.972 22.3573C179.983 22.1828 180.008 22.0091 180.031 21.784ZM184.835 20.1052C184.668 20.509 184.463 20.9023 184.345 21.3199C184.24 21.6869 184.41 21.9281 184.835 21.8891C185.84 21.797 186.844 21.6988 187.848 21.609C188.285 21.57 188.341 21.3317 188.229 20.964C187.706 19.2433 185.692 18.9593 184.835 20.1052Z" fill="#120D2D"/>
<path d="M80.0029 16.4506C82.4953 15.6377 84.8103 15.7799 86.8224 17.5474C88.2339 18.7873 88.9808 20.3697 88.9572 22.2761C88.9442 23.3272 88.6418 23.6886 87.6111 23.789C85.5217 23.9926 83.4294 24.1672 81.3384 24.3546C81.0703 24.3786 80.8027 24.4081 80.4989 24.4387C80.6107 25.119 81.0346 25.4951 81.5733 25.7413C83.0709 26.4257 84.5244 26.2088 85.9345 25.4619C86.2571 25.291 86.5636 25.0898 86.9055 24.8858C87.626 25.682 88.1104 26.5838 88.4447 27.5572C88.5061 27.7359 88.3324 28.0762 88.1662 28.2387C87.1459 29.2362 85.8539 29.6316 84.4759 29.776C82.4396 29.9894 80.4632 29.8065 78.7145 28.6226C76.3878 27.0473 75.6349 24.7459 75.9151 22.0708C76.1886 19.4596 77.4962 17.5305 80.0029 16.4506ZM83.3505 19.8153C81.9471 18.935 80.4513 19.6282 80.239 21.2471C80.1806 21.6928 80.3106 21.9285 80.7904 21.886C81.6016 21.8142 82.4134 21.7486 83.2238 21.6681C84.3044 21.5608 84.4484 21.2521 83.84 20.3445C83.7231 20.1702 83.5596 20.0271 83.3505 19.8153Z" fill="#120D2D"/>
<path d="M143.183 26.0886C144.11 25.7313 144.985 25.3802 145.956 24.9906C146.597 25.7009 147.09 26.6343 147.43 27.6451C147.48 27.7926 147.3 28.0769 147.151 28.2219C146.131 29.2196 144.847 29.6251 143.467 29.7747C141.409 29.9979 139.412 29.8205 137.653 28.6115C135.164 26.9 134.486 24.4202 134.947 21.5913C135.77 16.5377 140.772 15.0233 144.225 16.5303C146.459 17.5055 147.962 19.8654 147.923 22.2737C147.907 23.3004 147.582 23.6952 146.578 23.7927C144.489 23.9956 142.396 24.1711 140.305 24.3586C140.036 24.3828 139.767 24.4117 139.457 24.4425C139.562 25.1149 139.991 25.4729 140.515 25.7417C141.343 26.1659 142.229 26.2037 143.183 26.0886ZM139.782 20.0096C139.582 20.4436 139.338 20.8639 139.195 21.316C139.081 21.6768 139.27 21.9262 139.69 21.8895C140.695 21.8015 141.698 21.7006 142.704 21.6137C143.134 21.5765 143.205 21.3335 143.111 20.9718C142.728 19.492 141.014 18.9545 139.782 20.0096Z" fill="#120D2D"/>
<path d="M151.612 24.523C151.633 23.5547 151.655 22.641 151.666 21.7272C151.675 21.0245 151.535 20.8901 150.822 20.8667C150.613 20.8598 150.403 20.8435 150.126 20.8277C150.126 19.772 150.104 18.7467 150.153 17.7248C150.159 17.5835 150.507 17.3741 150.718 17.3421C151.526 17.2201 151.545 17.2426 151.552 16.4189C151.563 15.3304 151.526 14.2414 151.544 13.1531C151.559 12.2254 151.639 12.1853 152.518 12.3213C153.63 12.4936 154.743 12.6622 155.86 12.7991C156.3 12.853 156.457 13.0202 156.413 13.4727C156.326 14.3816 156.27 15.2946 156.238 16.2071C156.214 16.8767 156.353 16.9924 157.015 16.972C157.772 16.9486 158.531 16.9315 159.287 16.8799C159.751 16.8482 159.84 17.0489 159.816 17.4665C159.758 18.4547 159.722 19.4455 159.72 20.4353C159.719 20.8425 159.59 20.9931 159.184 20.9812C158.387 20.9579 157.589 20.9882 156.793 20.9513C156.393 20.9328 156.263 21.1088 156.27 21.4532C156.289 22.4053 156.278 23.3606 156.355 24.3085C156.43 25.2399 157.046 25.6662 158.09 25.564C158.571 25.5169 159.045 25.3963 159.521 25.3033C159.927 25.2239 160.157 25.316 160.11 25.7994C160.034 26.5725 160.016 27.3521 159.915 28.1213C159.888 28.3275 159.691 28.5822 159.502 28.6853C157.617 29.7114 155.619 30.0006 153.533 29.4656C152.294 29.1477 151.57 28.1929 151.55 26.9094C151.538 26.1326 151.587 25.3549 151.612 24.523Z" fill="#120D2D"/>
<path d="M115.132 15.861C115.123 20.1544 115.114 24.3924 115.112 28.6305C115.112 29.4593 115.126 29.49 114.295 29.5142C113.189 29.5465 112.08 29.5493 110.974 29.5188C110.186 29.4971 110.149 29.4283 110.152 28.6588C110.169 24.2833 110.215 19.9076 110.19 15.5324C110.182 14.1764 110.01 12.8188 109.864 11.4674C109.807 10.9466 109.934 10.7768 110.467 10.7876C111.906 10.8168 113.346 10.8154 114.785 10.7873C115.248 10.7782 115.398 10.9086 115.367 11.3787C115.27 12.853 115.209 14.3299 115.132 15.861Z" fill="#110C2C"/>
<path d="M201.184 27.0213C201.221 27.6994 201.25 28.3214 201.297 28.9421C201.325 29.3134 201.167 29.4931 200.8 29.4925C199.496 29.4905 198.193 29.4881 196.89 29.4831C196.382 29.4812 196.303 29.1565 196.308 28.7357C196.331 26.8676 196.349 24.9993 196.355 23.1311C196.361 21.28 196.267 19.4363 195.786 17.6366C195.684 17.2548 195.797 17.1007 196.17 17.0427C197.457 16.8428 198.742 16.6373 200.025 16.4134C200.426 16.3433 200.603 16.486 200.647 16.8735C200.689 17.2369 200.755 17.5976 200.816 18.0002C201.466 17.6608 202.038 17.2743 202.668 17.0576C203.318 16.8341 204.021 16.747 204.708 16.6561C205.117 16.6021 205.337 16.7945 205.308 17.2775C205.235 18.5188 205.196 19.7627 205.176 21.0061C205.167 21.5006 204.925 21.6588 204.486 21.652C203.826 21.6419 203.162 21.5812 202.508 21.6376C201.511 21.7234 201.188 22.0949 201.173 23.1115C201.154 24.3956 201.178 25.6803 201.184 27.0213Z" fill="#120D2D"/>
<path d="M140.783 39.4171C140.783 40.0002 140.783 40.5249 140.783 41.0496C140.782 43.2068 139.499 44.1721 137.386 43.62C137.009 43.5215 136.851 43.3444 137.006 42.9145C137.928 42.9837 138.97 43.3973 139.691 42.4988C139.964 42.159 139.955 41.5932 140.071 41.1447C139.449 41.2674 138.96 41.4701 138.49 41.4358C137.281 41.3476 136.528 40.3066 136.645 38.9841C136.677 38.6211 136.751 38.251 136.874 37.909C137.289 36.7591 138.726 36.0399 139.932 37.0539C140.186 36.9085 140.412 36.7798 140.783 36.5681C140.783 37.6256 140.783 38.4921 140.783 39.4171ZM139.991 38.3441C140.071 37.8608 139.82 37.5781 139.414 37.3863C138.935 37.1594 138.472 37.1747 138.047 37.5052C137.265 38.1135 137.212 39.8604 137.96 40.5068C138.426 40.9103 138.949 40.8742 139.491 40.6635C139.993 40.4682 140.023 40.0701 139.996 39.6176C139.972 39.2308 139.991 38.8414 139.991 38.3441Z" fill="#5AD1B0"/>
<path d="M106.219 38.363C106.219 37.1789 106.219 36.0532 106.219 34.8833C106.482 34.8833 106.704 34.8833 107.001 34.8833C107.001 35.7712 107.001 36.6722 107.001 37.612C108.157 37.612 109.238 37.612 110.393 37.612C110.393 36.7247 110.393 35.8227 110.393 34.8806C110.689 34.8806 110.911 34.8806 111.229 34.8806C111.229 35.0626 111.229 35.2473 111.229 35.432C111.229 37.2026 111.209 38.9735 111.241 40.7435C111.252 41.3413 111.017 41.4588 110.441 41.2969C110.441 40.3593 110.441 39.3988 110.441 38.4021C109.29 38.4021 108.209 38.4021 107.05 38.4021C107.05 39.3485 107.05 40.307 107.05 41.3186C106.752 41.3335 106.529 41.3446 106.219 41.3602C106.219 40.3504 106.219 39.3859 106.219 38.363Z" fill="#56D0AE"/>
<path d="M147.089 34.8385C147.488 34.8908 147.845 34.8999 148.173 35.0021C148.981 35.2538 149.409 35.8335 149.434 36.626C149.459 37.4094 149.075 38.078 148.311 38.357C147.792 38.5466 147.224 38.6079 146.673 38.6972C146.429 38.7368 146.174 38.7039 145.859 38.7039C145.859 39.5852 145.859 40.4299 145.859 41.2572C145.098 41.4449 145.033 41.4024 145.032 40.7436C145.031 38.9771 145.031 37.2105 145.033 35.444C145.033 35.2724 145.048 35.1008 145.061 34.8376C145.732 34.8376 146.383 34.8376 147.089 34.8385ZM147.444 35.57C146.929 35.57 146.413 35.57 145.841 35.57C145.841 35.9512 145.841 36.2756 145.841 36.6C145.841 38.1008 145.841 38.1008 147.33 37.8999C148.098 37.7963 148.533 37.4043 148.59 36.7634C148.642 36.1839 148.327 35.828 147.444 35.57Z" fill="#5BD1B0"/>
<path d="M29.0786 32.9234C28.4261 34.2909 27.2715 35.1289 26.1406 36.1195C26.1406 34.4495 26.1406 32.8739 26.1406 31.2348C26.8473 31.2348 27.5098 31.1555 28.1443 31.255C28.9277 31.3778 29.2615 32.0383 29.0786 32.9234Z" fill="#140F2F"/>
<path d="M23.0297 26.8796C23.51 26.4634 23.9608 26.0763 24.4116 25.6892C24.4664 25.7108 24.5212 25.7325 24.5759 25.7541C24.5759 27.2025 24.5759 28.6509 24.5759 30.2165C23.9129 30.1863 23.1701 30.2427 22.4684 30.0988C21.4935 29.8989 21.1984 28.9661 21.8132 28.1875C22.1725 27.7325 22.6023 27.3331 23.0297 26.8796Z" fill="#56D0AE"/>
<path d="M122.012 36.9243C122.526 37.3117 122.676 37.8117 122.672 38.3854C122.666 39.1625 122.687 39.9403 122.66 40.7165C122.653 40.9303 122.517 41.1396 122.44 41.351C122.23 41.2574 122.021 41.1637 121.737 41.0372C120.811 41.5909 119.977 41.6234 119.381 41.0681C118.941 40.6586 118.77 39.8829 119.079 39.3488C119.741 38.202 120.796 38.4533 121.82 38.645C122.019 37.4043 121.545 37.1599 119.403 37.4052C119.238 37.0203 119.328 36.7919 119.771 36.7045C120.529 36.555 121.271 36.4902 122.012 36.9243ZM121.719 39.2736C121.317 39.239 120.914 39.1655 120.513 39.1794C120.013 39.1967 119.736 39.4814 119.758 40.0097C119.78 40.5182 120.093 40.8111 120.625 40.8128C121.556 40.8158 121.997 40.2594 121.719 39.2736Z" fill="#5BD1B0"/>
<path d="M154.019 40.9585C153.477 41.3349 152.943 41.5645 152.298 41.4261C151.567 41.2693 151.138 40.7929 151.096 40.0598C151.058 39.396 151.442 38.7587 152.119 38.6158C152.708 38.4917 153.333 38.5399 153.961 38.5111C154.205 37.4072 153.498 37.0525 151.606 37.4189C151.42 37.0042 151.542 36.7301 151.998 36.7002C152.552 36.6639 153.126 36.6118 153.664 36.7131C154.421 36.8559 154.805 37.412 154.813 38.1818C154.823 39.2094 154.816 40.2371 154.816 41.2783C154.423 41.4427 154.16 41.3915 154.019 40.9585ZM154.03 39.6065C153.919 39.4768 153.822 39.2546 153.694 39.2346C153.318 39.1759 152.904 39.1131 152.552 39.2155C152.297 39.2896 151.966 39.6118 151.946 39.8465C151.923 40.1224 152.126 40.5398 152.362 40.6911C153.041 41.1263 154.017 40.5199 154.03 39.6065Z" fill="#59D1AF"/>
<path d="M113.608 40.5423C113.142 39.7281 113.146 38.9076 113.389 38.0813C113.69 37.059 114.53 36.5173 115.614 36.6095C116.461 36.6815 117.044 37.3251 117.18 38.3648C117.212 38.6092 117.184 38.8614 117.184 39.1707C116.139 39.1707 115.117 39.1707 114.107 39.1707C113.913 40.5101 114.953 41.0288 116.921 40.6213C117.086 41.0199 117.01 41.2834 116.542 41.3627C115.452 41.5476 114.404 41.5777 113.608 40.5423ZM115.63 37.2992C114.742 37.1552 114.167 37.5983 114.119 38.4731C114.864 38.4731 115.608 38.4731 116.376 38.4731C116.376 37.9291 116.195 37.5402 115.63 37.2992Z" fill="#59D1AF"/>
<path d="M174.857 37.971C174.915 38.3756 174.956 38.7357 175.005 39.1654C173.889 39.1654 172.847 39.1654 171.808 39.1654C171.779 40.5657 172.597 40.9624 174.72 40.6347C174.891 41.0707 174.708 41.3414 174.28 41.3583C173.648 41.3832 172.989 41.4261 172.39 41.2731C171.988 41.1704 171.581 40.8037 171.331 40.4465C170.774 39.6472 170.929 38.0531 171.557 37.3077C172.067 36.7012 172.738 36.4946 173.499 36.6251C174.225 36.7498 174.65 37.2284 174.857 37.971ZM173.999 37.828C173.6 37.2612 173.228 37.1086 172.675 37.3189C172.164 37.5132 171.879 37.8803 171.847 38.4614C172.647 38.4614 173.389 38.4614 174.173 38.4614C174.121 38.2396 174.082 38.073 173.999 37.828Z" fill="#59D1AF"/>
<path d="M92.2141 39.2679C92.1225 40.2094 91.7617 40.9285 90.8965 41.2874C90.1012 41.6173 89.334 41.5135 88.6453 41.0004C87.8326 40.3949 87.5692 38.9514 88.0452 37.8495C88.4544 36.9023 89.3801 36.4387 90.492 36.6239C91.409 36.7766 92.0966 37.5575 92.2005 38.5765C92.222 38.7879 92.2117 39.0026 92.2141 39.2679ZM91.3908 39.5206C91.3888 39.1718 91.4223 38.8184 91.3775 38.4753C91.2876 37.7862 90.7602 37.2879 90.1108 37.2231C89.5721 37.1694 89.0239 37.5169 88.7966 38.0926C88.5195 38.7948 88.5276 39.4988 88.9035 40.1665C89.2787 40.8331 90.1942 41.0545 90.755 40.5679C91.0302 40.3291 91.1753 39.9404 91.3908 39.5206Z" fill="#59D1AF"/>
<path d="M82.4407 36.1003C82.2 35.7024 81.9828 35.34 81.7422 34.9387C82.2583 34.7474 82.577 34.8244 82.8342 35.2875C83.3234 36.1685 83.8611 37.0226 84.4377 37.9867C84.9877 37.0728 85.5199 36.2502 85.9852 35.3914C86.2507 34.9016 86.5699 34.7098 87.1607 34.9153C86.6397 35.769 86.1635 36.6358 85.6029 37.4441C85.0265 38.2751 84.704 39.1384 84.8383 40.1607C84.8859 40.5229 84.8459 40.8967 84.8459 41.2561C84.1066 41.4676 83.9786 41.4131 84.0465 40.7194C84.1812 39.3429 83.8911 38.115 83.0155 37.0279C82.7979 36.7578 82.6463 36.4346 82.4407 36.1003Z" fill="#57D0AE"/>
<path d="M97.1187 39.8128C97.1224 38.7732 97.1224 37.7854 97.1224 36.7556C97.4014 36.7556 97.6228 36.7556 97.8791 36.7556C97.8791 37.8577 97.954 38.9646 97.8563 40.056C97.7726 40.9902 96.8991 41.5394 95.8867 41.47C94.8384 41.3982 94.1497 40.8062 94.1028 39.8296C94.0545 38.8239 94.0921 37.814 94.0921 36.7596C94.3458 36.7596 94.5666 36.7596 94.8802 36.7596C94.8802 37.7147 94.8789 38.6786 94.8807 39.6426C94.8816 40.1529 95.0584 40.5493 95.5811 40.7289C96.3186 40.9824 96.8835 40.6672 97.1187 39.8128Z" fill="#5CD2B1"/>
<path d="M130.921 36.9134C131.374 36.5031 131.57 36.7379 131.626 37.0995C132.209 36.9276 132.754 36.671 133.315 36.6246C134.09 36.5605 134.649 37.0455 134.693 37.82C134.757 38.9573 134.709 40.1009 134.709 41.2774C134.472 41.2774 134.271 41.2774 133.994 41.2774C133.994 40.7517 133.999 40.2528 133.993 39.7541C133.987 39.2306 134.003 38.704 133.951 38.1846C133.882 37.4977 133.572 37.2109 133.017 37.23C132.379 37.2519 131.698 37.8324 131.692 38.3803C131.683 39.3287 131.69 40.2773 131.69 41.2701C131.428 41.2701 131.209 41.2701 130.914 41.2701C130.914 39.8264 130.914 38.3953 130.921 36.9134Z" fill="#54D0AD"/>
<path d="M168.673 36.9957C168.817 37.2728 169.021 37.515 169.028 37.763C169.063 38.924 169.043 40.0866 169.043 41.2798C168.815 41.2798 168.628 41.2798 168.335 41.2798C168.335 40.9201 168.342 40.5607 168.333 40.2017C168.313 39.4452 168.321 38.685 168.244 37.9339C168.192 37.4258 167.78 37.1774 167.281 37.2349C166.539 37.3203 166.029 37.8898 166.029 38.6337C166.028 39.5048 166.029 40.3759 166.029 41.2752C165.764 41.2752 165.563 41.2752 165.328 41.2752C165.328 39.7675 165.328 38.2956 165.328 36.8027C165.789 36.5055 165.898 36.8827 166.026 37.2528C166.86 36.5605 167.71 36.2946 168.673 36.9957Z" fill="#54D0AD"/>
<path d="M26.3288 20.4896C26.3681 19.6761 26.4225 18.9203 26.4385 18.1637C26.4461 17.8048 26.5995 17.6719 26.9338 17.6958C27.3774 17.7276 27.8322 17.7103 28.2621 17.8051C28.9664 17.9605 29.2276 18.5652 28.7799 19.1172C28.0677 19.9949 27.2666 20.8005 26.5031 21.6366C26.4448 21.6113 26.3864 21.586 26.3281 21.5606C26.3281 21.2227 26.3281 20.8848 26.3288 20.4896Z" fill="#140F2F"/>
<path d="M26.732 5.05529C27.1136 4.35661 27.6918 4.05299 28.419 4.02844C29.0157 4.00829 29.6137 4.02433 30.3154 4.15603C29.102 5.29523 27.8886 6.43444 26.6752 7.57364C26.6064 7.55233 26.5376 7.53102 26.4688 7.5097C26.5492 6.705 26.6297 5.90029 26.732 5.05529Z" fill="#130E2E"/>
<path d="M162.252 41.3994C161.574 41.1933 161.318 40.7493 161.332 40.1072C161.345 39.5043 161.334 38.9009 161.334 38.2977C161.334 37.4137 161.334 37.4137 160.461 37.28C160.461 37.1209 160.461 36.9564 160.461 36.755C160.735 36.7321 160.998 36.7101 161.306 36.6844C161.323 36.2861 161.34 35.9056 161.359 35.4861C161.581 35.4861 161.783 35.4861 162.046 35.4861C162.046 35.8647 162.046 36.2444 162.046 36.6835C162.52 36.6835 162.939 36.6835 163.424 36.6835C163.435 36.9166 163.443 37.0935 163.455 37.3437C162.985 37.3437 162.568 37.3437 162.09 37.3437C162.09 38.3382 162.064 39.2651 162.102 40.1893C162.12 40.6341 162.486 40.7906 162.892 40.7997C163.083 40.8039 163.274 40.7615 163.484 40.7382C163.666 41.2239 163.498 41.4404 163 41.4274C162.767 41.4213 162.534 41.4132 162.252 41.3994Z" fill="#54D0AD"/>
<path d="M125.615 40.4551C125.615 40.7807 125.615 41.0492 125.615 41.357C125.335 41.357 125.097 41.357 124.828 41.357C124.828 39.0035 124.828 36.6671 124.828 34.3025C125.084 34.3025 125.309 34.3025 125.615 34.3025C125.615 36.3386 125.615 38.3683 125.615 40.4551Z" fill="#52CFAC"/>
<path d="M100.818 37.2763C101.336 36.8691 101.824 36.4877 102.557 36.6424C102.557 36.8465 102.557 37.0492 102.557 37.2499C100.825 37.7146 100.825 37.7146 100.825 39.5058C100.825 39.9139 100.796 40.3247 100.832 40.7295C100.884 41.3016 100.652 41.4751 100.078 41.308C100.078 39.8178 100.078 38.3136 100.078 36.8074C100.613 36.6756 100.613 36.6756 100.818 37.2763Z" fill="#5CD2B1"/>
<path d="M158.984 37.3822C157.937 37.6445 157.746 37.8882 157.745 38.9147C157.745 39.7057 157.745 40.4967 157.745 41.3234C157.484 41.3234 157.283 41.3234 157.047 41.3234C157.047 39.7897 157.047 38.2867 157.047 36.7533C157.217 36.7421 157.365 36.7323 157.545 36.7205C157.611 36.91 157.673 37.0864 157.713 37.2009C158.282 36.9592 158.841 36.7216 159.515 36.4353C159.515 36.8371 159.515 37.0365 159.515 37.2726C159.36 37.3032 159.195 37.336 158.984 37.3822Z" fill="#56D0AE"/>
<path d="M177.409 36.7275C177.555 36.9301 177.653 37.1271 177.757 37.3366C178.221 36.8649 178.733 36.5103 179.488 36.637C179.488 36.8407 179.488 37.0412 179.488 37.2762C179.381 37.2952 179.272 37.3144 179.163 37.3343C177.947 37.5553 177.715 37.8306 177.715 39.0552C177.715 39.787 177.715 40.5188 177.715 41.2798C177.449 41.2798 177.249 41.2798 176.986 41.2798C176.986 39.8345 176.978 38.4241 177.002 37.0142C177.003 36.9148 177.236 36.8193 177.409 36.7275Z" fill="#54D0AD"/>
<path d="M24.2832 15.6438C23.7935 15.7234 23.3325 15.8417 22.8879 15.797C22.3035 15.7384 22.0242 15.0562 22.417 14.6122C22.9471 14.013 23.5724 13.4981 24.1569 12.947C24.211 12.975 24.265 13.003 24.3191 13.031C24.3191 13.8906 24.3191 14.7503 24.2832 15.6438Z" fill="#56D0AE"/>
<path d="M128.668 36.9907C128.667 38.4004 128.664 39.7549 128.658 41.1094C128.658 41.1454 128.637 41.1812 128.604 41.2806C128.427 41.2901 128.226 41.3008 127.98 41.3139C127.98 39.7764 127.98 38.2796 127.98 36.6267C128.253 36.7496 128.46 36.8426 128.668 36.9907Z" fill="#52CFAC"/>
<path d="M128.593 35.5972C128.298 35.6241 127.957 35.8288 127.881 35.3584C127.795 34.8306 127.95 34.716 128.629 34.8407C128.629 35.0775 128.629 35.3204 128.593 35.5972Z" fill="#64D4B4"/>
<path d="M20.382 41.8734C20.3782 41.9247 20.3532 41.9541 20.2864 41.9765C20.2447 41.9696 20.2188 41.9425 20.2188 41.9425C20.2233 41.9023 20.2411 41.8694 20.2944 41.8264C20.3314 41.8232 20.3461 41.8373 20.382 41.8734Z" fill="#FEFFFF"/>
<path d="M20.1486 42.1059C20.1542 42.0648 20.1598 42.0237 20.1923 41.9622C20.2192 41.9418 20.2451 41.9689 20.2581 41.9825C20.2471 42.0255 20.2232 42.0549 20.172 42.0931C20.1448 42.1019 20.1486 42.1059 20.1486 42.1059Z" fill="#FEFFFF"/>
<path d="M20.1489 42.0997C20.1375 42.0987 20.1276 42.0999 20.1359 42.1036C20.1542 42.1061 20.1503 42.1021 20.1489 42.0997Z" fill="#FEFFFF"/>
<path d="M96.2031 23.5948C96.166 23.2607 96.1034 22.9698 96.1199 22.6835C96.2343 20.6956 98.011 20.0632 99.5597 20.4562C100.78 20.766 101.383 21.6559 101.352 22.9555C101.323 24.176 100.599 25.1331 99.5001 25.4033C98.2326 25.715 96.9995 25.2033 96.4209 24.1198C96.3392 23.9668 96.2825 23.8004 96.2031 23.5948Z" fill="#FCFCFD"/>
<path d="M184.864 20.074C185.694 18.9615 187.708 19.2456 188.231 20.9663C188.343 21.3339 188.287 21.5722 187.85 21.6112C186.845 21.701 185.842 21.7993 184.837 21.8913C184.412 21.9303 184.242 21.6892 184.346 21.3221C184.465 20.9045 184.67 20.5113 184.864 20.074Z" fill="#FAFAFB"/>
<path d="M83.3885 19.8459C83.564 20.0306 83.7276 20.1736 83.8444 20.348C84.4529 21.2555 84.3088 21.5643 83.2282 21.6716C82.4179 21.752 81.6061 21.8177 80.7949 21.8895C80.3151 21.932 80.1851 21.6963 80.2435 21.2506C80.4558 19.6316 81.9515 18.9384 83.3885 19.8459Z" fill="#FAFAFB"/>
<path d="M139.813 19.975C141.015 18.9509 142.73 19.4884 143.113 20.9682C143.206 21.3299 143.135 21.5729 142.705 21.6101C141.7 21.697 140.696 21.7979 139.691 21.8859C139.272 21.9226 139.083 21.6732 139.197 21.3124C139.34 20.8603 139.583 20.44 139.813 19.975Z" fill="#FAFAFB"/>
<path d="M139.993 38.3972C139.993 38.8399 139.974 39.2293 139.997 39.6161C140.025 40.0686 139.995 40.4667 139.492 40.662C138.951 40.8727 138.428 40.9089 137.961 40.5053C137.213 39.859 137.266 38.112 138.049 37.5037C138.474 37.1732 138.936 37.1579 139.416 37.3848C139.821 37.5766 140.073 37.8593 139.993 38.3972Z" fill="#FCFEFD"/>
<path d="M147.49 35.5782C148.322 35.83 148.637 36.1859 148.585 36.7654C148.528 37.4063 148.094 37.7984 147.326 37.9019C145.836 38.1028 145.836 38.1028 145.836 36.6021C145.836 36.2776 145.836 35.9532 145.836 35.572C146.409 35.572 146.924 35.572 147.49 35.5782Z" fill="#F9FDFC"/>
<path d="M121.762 39.2951C121.994 40.2593 121.553 40.8158 120.622 40.8128C120.089 40.8111 119.776 40.5182 119.755 40.0096C119.733 39.4813 120.01 39.1966 120.51 39.1793C120.91 39.1655 121.314 39.2389 121.762 39.2951Z" fill="#FCFEFD"/>
<path d="M154.031 39.6592C154.018 40.5207 153.042 41.1272 152.363 40.692C152.127 40.5407 151.924 40.1233 151.947 39.8474C151.967 39.6127 152.298 39.2904 152.553 39.2163C152.905 39.1139 153.319 39.1767 153.696 39.2355C153.823 39.2555 153.92 39.4776 154.031 39.6592Z" fill="#FCFEFD"/>
<path d="M115.671 37.3096C116.193 37.5395 116.374 37.9284 116.374 38.4724C115.606 38.4724 114.862 38.4724 114.117 38.4724C114.165 37.5975 114.74 37.1545 115.671 37.3096Z" fill="#FBFEFD"/>
<path d="M174.025 37.8698C174.086 38.0756 174.125 38.2423 174.177 38.464C173.394 38.464 172.652 38.464 171.852 38.464C171.883 37.8829 172.168 37.5158 172.68 37.3215C173.233 37.1112 173.604 37.2638 174.025 37.8698Z" fill="#FBFEFD"/>
<path d="M91.3833 39.5689C91.1736 39.9392 91.0285 40.328 90.7533 40.5668C90.1925 41.0534 89.2771 40.8319 88.9018 40.1654C88.5259 39.4977 88.5178 38.7937 88.795 38.0915C89.0222 37.5157 89.5704 37.1683 90.1091 37.222C90.7585 37.2868 91.2859 37.7851 91.3758 38.4742C91.4206 38.8173 91.3871 39.1707 91.3833 39.5689Z" fill="#FCFEFD"/>
</g>
<defs>
<clipPath id="clip0_1_1606">
<rect width="210" height="47.4105" fill="white" transform="translate(0.640625 0.294678)"/>
</clipPath>
</defs>
</svg>
